Coordinates
version=1
nRows=8
nColumns=33
inDegrees=yes

Units are S.I. units (second, meters, Newtons, ...)
Angles are in degrees.

endheader
time	ground_thorax_rot_x	ground_thorax_rot_y	ground_thorax_rot_z	ground_thorax_tx	ground_thorax_ty	ground_thorax_tz	clav_prot_r	clav_elev_r	scapula_abduction_r	scapula_elevation_r	scapula_upward_rot_r	scapula_winging_r	shoulder_elv_r	plane_of_elev_r	axial_rot_r	elbow_flexion_r	pro_sup_r	wrist_flex_r	wrist_dev_r	clav_prot_l	clav_elev_l	scapula_abduction_l	scapula_elevation_l	scapula_upward_rot_l	scapula_winging_l	shoulder_elv_l	plane_of_elev_l	axial_rot_l	elbow_flexion_l	pro_sup_l	wrist_flex_l	wrist_dev_l
     11.53000000	    -31.95873688	    -26.01598110	     33.94899887	   -117.05842841	    852.43568979	    -45.98753257	     26.96785016	    -45.00000000	     39.84223872	    -45.00000000	    -45.00000000	    971.26584990	   2958.08238018	     21.05947339	   -144.75674746	   2158.65246301	   -196.97147604	     17.54664568	     13.28292220	     -1.05902384	     33.21350426	    -31.87524419	    -45.00000000	    -45.00000000	   3689.25529058	  -3521.79435188	     27.08930082	     48.19058441	   1788.83697119	     37.51933854	     13.55481491	    -21.66378379
     11.54000000	    -31.76441019	    -26.22593710	     34.28922463	   -116.77371478	    852.30750918	    -45.85847153	     27.16048674	    -45.00000000	     39.90478391	    -45.00000000	    -45.00000000	    971.27746688	   2958.30881700	     21.05666686	   -144.53336359	   2158.84776114	   -196.91087068	     17.87496925	     13.73087282	     -1.14110281	     32.85330402	    -31.74595414	    -45.00000000	    -45.00000000	   3689.10664706	  -3521.75313902	     26.85801150	     48.14815370	   1788.95945683	     37.57481226	     13.73346998	    -21.88700869
     11.55000000	    -31.82634111	    -26.18064401	     34.14379316	   -116.41611147	    852.18484558	    -45.74875686	     27.11489871	    -45.00000000	     40.03545580	    -45.00000000	    -45.00000000	    971.20051438	   2958.02663612	     21.12999719	   -144.68949767	   2158.56849287	   -196.89214141	     17.43018795	     12.99448464	     -1.18390375	     33.35176670	    -31.80107622	    -45.00000000	    -45.00000000	   3689.29553396	  -3521.92842987	     27.16791973	     48.16454687	   1788.93202876	     37.63914130	     13.44475663	    -21.67107681
     11.56000000	    -31.80824002	    -26.27933227	     34.29607610	   -115.99777524	    852.07193711	    -45.65293216	     27.13704205	    -45.00000000	     39.94157120	    -45.00000000	    -45.00000000	    971.28555280	   2958.12726344	     21.09758443	   -144.67065570	   2158.66105662	   -196.86905085	     17.84539618	     13.56821725	     -1.13443223	     33.00095226	    -31.68946086	    -45.00000000	    -45.00000000	   3689.09877628	  -3521.77368564	     27.02513076	     48.13723240	   1789.03039316	     37.66588041	     13.64619637	    -21.86525886
     11.57000000	    -31.74750655	    -26.39748175	     34.47357612	   -115.51846633	    851.96451401	    -45.56673517	     27.16424208	    -45.00000000	     40.01627290	    -45.00000000	    -45.00000000	    971.29822845	   2958.10737181	     21.07622174	   -144.76638211	   2158.61003643	   -196.83817222	     17.61553407	     13.45857832	     -1.12970296	     33.18656718	    -31.76751702	    -45.00000000	    -45.00000000	   3689.23762367	  -3521.81516128	     27.09990107	     48.22025272	   1788.94353929	     37.69281643	     13.54570191	    -21.74644608
     11.58000000	    -31.68650547	    -26.56510213	     34.82321189	   -114.98045034	    851.85915377	    -45.48716288	     27.19169271	    -45.00000000	     40.01211552	    -45.00000000	    -45.00000000	    971.39115372	   2958.08723328	     20.92958722	   -144.87748765	   2158.82541801	   -196.89246266	     17.98499021	     13.61959173	     -1.15652347	     32.90764966	    -32.03643706	    -45.00000000	    -45.00000000	   3689.17472432	  -3521.67235902	     26.74496101	     48.20624841	   1788.75814538	     37.71583604	     13.76307739	    -21.82331836
     11.59000000	    -31.72578441	    -26.53513148	     34.66526018	   -114.37975903	    851.75164079	    -45.41112556	     27.20107644	    -45.00000000	     40.05868596	    -45.00000000	    -45.00000000	    971.33488190	   2957.98965615	     21.12369224	   -144.93054563	   2158.57084192	   -196.82642123	     17.47607335	     13.46595609	     -1.18076516	     33.26026546	    -31.79954860	    -45.00000000	    -45.00000000	   3689.26474469	  -3521.75144832	     27.24015733	     48.28470845	   1788.85046476	     37.67178409	     13.56622646	    -21.67206420
     11.60000000	    -31.59466035	    -26.73102820	     34.90360931	   -113.72641878	    851.64097921	    -45.33857735	     27.20613759	    -45.00000000	     40.08714025	    -45.00000000	    -45.00000000	    971.49392887	   2958.06539906	     21.03686591	   -145.06489774	   2158.71325232	   -196.90752939	     18.01776157	     13.74928224	     -1.07421699	     32.95596034	    -31.78502702	    -45.00000000	    -45.00000000	   3689.06640627	  -3521.61934050	     26.92747131	     48.28439912	   1788.89694162	     37.62536848	     13.77054349	    -21.79117650
